<svg width="18" height="19" viewBox="0 0 18 19" fill="none" xmlns="http://www.w3.org/2000/svg">
<rect y="0.641602" width="18" height="18" rx="1.5" fill="#0A033C"/>
<path d="M9.00027 3.0957C7.22269 3.0957 6.9996 3.10348 6.30144 3.13525C5.60465 3.16716 5.12902 3.27748 4.71285 3.43934C4.28237 3.60652 3.9172 3.83016 3.55339 4.19411C3.18931 4.55793 2.96568 4.92311 2.79796 5.35347C2.63569 5.76979 2.52524 6.24557 2.49388 6.94211C2.46265 7.64029 2.45447 7.86352 2.45447 9.64115C2.45447 11.4188 2.46238 11.6412 2.49401 12.3394C2.52606 13.0362 2.63637 13.5118 2.79809 13.928C2.96541 14.3585 3.18904 14.7237 3.55298 15.0875C3.91665 15.4516 4.28182 15.6758 4.71204 15.843C5.12848 16.0048 5.60424 16.1152 6.3009 16.1471C6.99906 16.1788 7.222 16.1866 8.99945 16.1866C10.7772 16.1866 10.9996 16.1788 11.6977 16.1471C12.3945 16.1152 12.8707 16.0048 13.2871 15.843C13.7175 15.6758 14.0821 15.4516 14.4458 15.0875C14.8099 14.7237 15.0335 14.3585 15.2012 13.9282C15.3621 13.5118 15.4726 13.0361 15.5053 12.3395C15.5367 11.6413 15.5448 11.4188 15.5448 9.64115C15.5448 7.86352 15.5367 7.64043 15.5053 6.94225C15.4726 6.24543 15.3621 5.76979 15.2012 5.35361C15.0335 4.92311 14.8099 4.55793 14.4458 4.19411C14.0817 3.83002 13.7176 3.60638 13.2867 3.43934C12.8695 3.27748 12.3936 3.16716 11.6968 3.13525C10.9986 3.10348 10.7764 3.0957 8.99822 3.0957H9.00027ZM8.41311 4.27525C8.58737 4.27498 8.78182 4.27525 9.00027 4.27525C10.7479 4.27525 10.955 4.28152 11.6451 4.31288C12.2833 4.34207 12.6296 4.4487 12.8603 4.53829C13.1658 4.65693 13.3835 4.79875 13.6125 5.02784C13.8416 5.25693 13.9834 5.47511 14.1023 5.78057C14.1919 6.01102 14.2987 6.35738 14.3277 6.99556C14.3591 7.68556 14.3659 7.89284 14.3659 9.63965C14.3659 11.3865 14.3591 11.5937 14.3277 12.2837C14.2985 12.9219 14.1919 13.2683 14.1023 13.4987C13.9837 13.8042 13.8416 14.0217 13.6125 14.2507C13.3834 14.4797 13.1659 14.6216 12.8603 14.7402C12.6299 14.8302 12.2833 14.9366 11.6451 14.9657C10.9551 14.9971 10.7479 15.0039 9.00027 15.0039C7.25255 15.0039 7.04542 14.9971 6.35544 14.9657C5.71728 14.9363 5.37092 14.8297 5.14007 14.7401C4.83462 14.6214 4.61645 14.4796 4.38736 14.2505C4.15828 14.0214 4.01647 13.8038 3.89756 13.4982C3.80797 13.2677 3.7012 12.9214 3.67216 12.2832C3.6408 11.5932 3.63452 11.3859 3.63452 9.63802C3.63452 7.89011 3.6408 7.68393 3.67216 6.99393C3.70134 6.35575 3.80797 6.00938 3.89756 5.77866C4.01619 5.4732 4.15828 5.25502 4.38736 5.02593C4.61645 4.79684 4.83462 4.65502 5.14007 4.53611C5.37079 4.44611 5.71728 4.33975 6.35544 4.31043C6.95924 4.28316 7.19323 4.27498 8.41311 4.27361V4.27525ZM12.4941 5.36207C12.0604 5.36207 11.7086 5.71347 11.7086 6.14725C11.7086 6.58088 12.0604 6.9327 12.4941 6.9327C12.9277 6.9327 13.2795 6.58088 13.2795 6.14725C13.2795 5.71361 12.9277 5.36179 12.4941 5.36179V5.36207ZM9.00027 6.27979C7.14401 6.27979 5.63901 7.78484 5.63901 9.64115C5.63901 11.4975 7.14401 13.0018 9.00027 13.0018C10.8565 13.0018 12.361 11.4975 12.361 9.64115C12.361 7.78484 10.8564 6.27979 9.00013 6.27979H9.00027ZM9.00027 7.45934C10.2051 7.45934 11.182 8.43611 11.182 9.64115C11.182 10.8461 10.2051 11.823 9.00027 11.823C7.79526 11.823 6.81852 10.8461 6.81852 9.64115C6.81852 8.43611 7.79526 7.45934 9.00027 7.45934Z" fill="white"/>
</svg>
