<svg width="22" height="19" viewBox="0 0 22 19" fill="none" xmlns="http://www.w3.org/2000/svg">
<g clip-path="url(#clip0_346_651)">
<path d="M20.9205 17.7281C20.9677 17.7286 21.0145 17.7195 21.058 17.7013C21.1014 17.6831 21.1407 17.6562 21.1733 17.6224C21.2058 17.5886 21.2311 17.5485 21.2473 17.5046C21.2636 17.4607 21.2706 17.414 21.2679 17.3674C21.2679 17.1115 21.112 16.9893 20.7921 16.9893H20.2753V18.3288H20.4697V17.7449H20.7086L20.714 17.752L21.0847 18.3288H21.2926L20.8938 17.7318L20.9205 17.7281ZM20.6957 17.5939H20.4703V17.1411H20.7559C20.9035 17.1411 21.0718 17.165 21.0718 17.3563C21.0718 17.5763 20.9015 17.5939 20.6945 17.5939" fill="#0A033C"/>
<path d="M15.8502 16.0494H13.0939V11.7755C13.0939 10.7563 13.0755 9.44429 11.6603 9.44429C10.2247 9.44429 10.0051 10.5547 10.0051 11.7013V16.0492H7.24875V7.2601H9.89481V8.46122H9.93186C10.1967 8.01291 10.5793 7.64411 11.0391 7.39409C11.4988 7.14408 12.0185 7.02222 12.5426 7.04148C15.3363 7.04148 15.8513 8.86093 15.8513 11.2279L15.8502 16.0494ZM4.13871 6.0587C3.82236 6.05875 3.51308 5.96592 3.25001 5.79194C2.98694 5.61796 2.78189 5.37065 2.66078 5.08127C2.53966 4.7919 2.50792 4.47346 2.56958 4.16623C2.63124 3.85899 2.78354 3.57677 3.00719 3.35523C3.23085 3.1337 3.51583 2.98281 3.8261 2.92164C4.13637 2.86048 4.45798 2.89178 4.75027 3.0116C5.04257 3.13142 5.29242 3.33438 5.46822 3.59479C5.64403 3.85521 5.7379 4.1614 5.73795 4.47464C5.73799 4.68263 5.69665 4.88858 5.6163 5.08075C5.53595 5.27291 5.41818 5.44753 5.26967 5.59462C5.12117 5.74171 4.94485 5.8584 4.7508 5.93803C4.55675 6.01766 4.34877 6.05866 4.13871 6.0587ZM5.51687 16.0494H2.75769V7.2601H5.51687V16.0494ZM17.2243 0.356724H1.37264C1.01286 0.352703 0.666156 0.490281 0.408761 0.739224C0.151365 0.988168 0.00432999 1.32811 -6.10352e-05 1.68435V17.445C0.0041797 17.8014 0.151129 18.1416 0.408515 18.3908C0.665902 18.64 1.01268 18.7779 1.37264 18.7741H17.2243C17.585 18.7786 17.9327 18.6411 18.1912 18.3919C18.4496 18.1427 18.5975 17.8021 18.6025 17.445V1.68321C18.5973 1.32627 18.4493 0.985937 18.1909 0.737C17.9325 0.488063 17.5848 0.350878 17.2243 0.355586" fill="#0A033C"/>
<path d="M20.7195 16.3926C20.3841 16.3958 20.0637 16.5303 19.8283 16.7668C19.5929 17.0033 19.4616 17.3225 19.4632 17.6545C19.4648 17.9866 19.5992 18.3045 19.8369 18.5387C20.0746 18.773 20.3963 18.9045 20.7317 18.9045C21.067 18.9045 21.3888 18.773 21.6265 18.5387C21.8642 18.3045 21.9985 17.9866 22.0002 17.6545C22.0018 17.3225 21.8705 17.0033 21.6351 16.7668C21.3997 16.5303 21.0792 16.3958 20.7439 16.3926H20.7195ZM20.7195 18.7607C20.4995 18.7643 20.2834 18.7033 20.0985 18.5853C19.9136 18.4673 19.7681 18.2977 19.6806 18.0979C19.593 17.898 19.5673 17.677 19.6066 17.4627C19.6459 17.2483 19.7485 17.0504 19.9015 16.8938C20.0544 16.7373 20.2508 16.6291 20.4658 16.5831C20.6809 16.537 20.9049 16.5552 21.1095 16.6351C21.3141 16.7151 21.4901 16.8534 21.6154 17.0325C21.7406 17.2116 21.8094 17.4234 21.8131 17.6412C21.8131 17.6474 21.8131 17.6534 21.8131 17.6596C21.8193 17.9454 21.7106 18.2218 21.5109 18.4282C21.3113 18.6345 21.037 18.7539 20.7485 18.7601H20.7198" fill="#0A033C"/>
</g>
<defs>
<clipPath id="clip0_346_651">
<rect width="22" height="18.5714" fill="white" transform="translate(0 0.355469)"/>
</clipPath>
</defs>
</svg>
