<svg width="12" height="12" viewBox="0 0 12 12" fill="none" xmlns="http://www.w3.org/2000/svg">
<path d="M5.32618 1.02742C5.43514 0.765453 5.80624 0.765452 5.9152 1.02742L7.23322 4.19633C7.27915 4.30676 7.38301 4.38222 7.50224 4.39178L10.9233 4.66605C11.2062 4.68872 11.3208 5.04166 11.1054 5.22623L8.49884 7.45899C8.408 7.53681 8.36833 7.6589 8.39608 7.77524L9.19242 11.1137C9.25825 11.3896 8.95802 11.6078 8.71589 11.4599L5.78695 9.67089C5.68488 9.60854 5.5565 9.60854 5.45443 9.67089L2.52549 11.4599C2.28336 11.6078 1.98313 11.3896 2.04896 11.1137L2.8453 7.77524C2.87305 7.6589 2.83338 7.53681 2.74254 7.45899L0.136022 5.22623C-0.0794513 5.04166 0.035225 4.68872 0.318037 4.66605L3.73914 4.39178C3.85837 4.38222 3.96222 4.30676 4.00816 4.19633L5.32618 1.02742Z" fill="#FF0000"/>
</svg>
