<svg width="239" height="34" viewBox="0 0 239 34" fill="none" xmlns="http://www.w3.org/2000/svg">
<path d="M89.5995 13.3785V28.2352H84.1747V13.3785H78.6878V8.6485H95.0709V13.3785H89.5995Z" fill="#344054"/>
<path d="M107.75 22.327H99.1318C99.3023 23.9553 100.248 24.6687 101.627 24.6687C102.914 24.6687 103.983 24.3896 105.425 23.6297L107.347 26.8553C105.533 27.9254 103.658 28.5302 101.364 28.5302C96.9464 28.5302 94.5129 25.3976 94.5129 20.8847C94.5129 15.8136 97.3648 13.2237 101.224 13.2237C105.254 13.2237 107.765 15.8756 107.765 21.3345C107.765 21.7687 107.765 22.0788 107.75 22.327ZM101.085 16.9612C99.9378 16.9612 99.3023 17.7521 99.1318 19.1943H103.332C103.069 17.7056 102.573 16.9612 101.085 16.9612Z" fill="#344054"/>
<path d="M117.111 28.5453C112.802 28.5453 110.23 25.8004 110.23 20.8533C110.23 16.3405 112.523 13.2389 117.22 13.2389C119.994 13.2389 121.575 14.526 122.862 16.5886L119.39 19.225C118.692 17.9378 118.212 17.3175 117.127 17.3175C115.84 17.3175 115.189 18.6047 115.189 20.9309C115.189 23.2571 115.887 24.4512 117.266 24.4512C118.212 24.4512 118.894 23.9239 119.808 22.5437L123.001 25.0405C121.296 27.5528 119.715 28.5453 117.111 28.5453Z" fill="#344054"/>
<path d="M134.269 28.2354V19.892C134.269 17.9845 133.634 17.4883 132.595 17.4883C131.526 17.4883 130.891 17.9845 130.891 19.8455V28.2354H125.853V9.84278L130.891 7.82673V14.5262C131.82 13.8284 132.843 13.239 134.579 13.239C137.803 13.239 139.338 15.3947 139.338 19.2562V28.2354H134.269Z" fill="#344054"/>
<path d="M151.381 28.5456C145.569 28.5456 142.453 24.2343 142.453 18.4498C142.453 12.1535 146.142 8.35404 151.397 8.35404C156.201 8.35404 158.108 10.4321 159.456 14.123L154.543 16.0305C153.845 14.2161 153.179 13.0685 151.381 13.0685C149.118 13.0685 148.142 15.3327 148.142 18.4343C148.142 21.4274 149.087 23.8001 151.443 23.8001C153.148 23.8001 153.876 22.8696 154.93 21.0241L159.518 23.4589C158.216 26.0488 156.031 28.5456 151.381 28.5456Z" fill="#344054"/>
<path d="M171.903 19.0857C171.267 18.3879 170.539 17.8606 169.562 17.8606C168.338 17.8606 167.578 18.4499 167.578 20.2333V28.2355H162.541V13.5493H167.578V14.6194C168.446 13.782 169.423 13.2547 170.709 13.2547C171.779 13.2547 172.492 13.5028 173.081 13.875L171.903 19.0857Z" fill="#344054"/>
<path d="M183.868 28.2354V27.2584C182.969 27.9563 181.915 28.5456 180.21 28.5456C176.986 28.5456 175.452 26.39 175.452 22.5284V13.5493H180.52V21.8926C180.52 23.8001 181.156 24.2964 182.194 24.2964C183.233 24.2964 183.868 23.8001 183.868 21.9391V13.5493H188.937V28.2354H183.868Z" fill="#344054"/>
<path d="M200.98 28.2352V19.8918C200.98 17.9843 200.344 17.4881 199.306 17.4881C198.236 17.4881 197.601 17.9843 197.601 19.8453V28.2352H192.564V13.549H197.601V14.526C198.531 13.8282 199.554 13.2389 201.29 13.2389C204.514 13.2389 206.048 15.3945 206.048 19.256V28.2352H200.98Z" fill="#344054"/>
<path d="M215.86 28.5453C211.551 28.5453 208.978 25.8004 208.978 20.8533C208.978 16.3405 211.272 13.2389 215.968 13.2389C218.743 13.2389 220.323 14.526 221.61 16.5886L218.138 19.225C217.441 17.9378 216.96 17.3175 215.875 17.3175C214.589 17.3175 213.938 18.6047 213.938 20.9309C213.938 23.2571 214.635 24.4512 216.015 24.4512C216.96 24.4512 217.642 23.9239 218.557 22.5437L221.749 25.0405C220.044 27.5528 218.463 28.5453 215.86 28.5453Z" fill="#344054"/>
<path d="M233.018 28.2354V19.892C233.018 17.9845 232.382 17.4883 231.344 17.4883C230.274 17.4883 229.639 17.9845 229.639 19.8455V28.2354H224.601V9.84278L229.639 7.82673V14.5262C230.569 13.8284 231.592 13.239 233.328 13.239C236.552 13.239 238.086 15.3947 238.086 19.2562V28.2354H233.018Z" fill="#344054"/>
<path d="M0.166626 0.258789V11.4556H11.3574V33.8338H22.5326V11.4556H33.7233V0.258789H0.166626Z" fill="#344054"/>
<path d="M44.8986 22.637V11.4557L33.7233 11.4556L33.7233 33.8339H67.2645V22.637H44.8986Z" fill="#344054"/>
<path d="M67.2645 0.258789H44.8985L44.8986 11.4557L67.2645 11.4556V0.258789Z" fill="#344054"/>
</svg>
