<svg width="22" height="19" viewBox="0 0 22 19" fill="none" xmlns="http://www.w3.org/2000/svg">
<path d="M6.94632 18.369C15.1934 18.369 19.7034 11.6539 19.7034 5.8308C19.7034 5.64007 19.6994 5.4502 19.6907 5.26119C20.5662 4.63917 21.3271 3.86294 21.9272 2.9793C21.1239 3.33026 20.2594 3.56652 19.3524 3.67306C20.2781 3.1275 20.9888 2.26449 21.3241 1.23569C20.4578 1.74044 19.4984 2.1073 18.477 2.30536C17.6588 1.44882 16.494 0.913086 15.2042 0.913086C12.7282 0.913086 10.7203 2.88657 10.7203 5.31918C10.7203 5.66498 10.7596 6.00134 10.8366 6.32397C7.11013 6.13969 3.8058 4.38616 1.59436 1.71982C1.2093 2.37105 0.987272 3.12752 0.987272 3.93469C0.987272 5.46355 1.77883 6.81322 2.98253 7.6028C2.24692 7.58047 1.5559 7.382 0.951926 7.05166C0.951266 7.07015 0.951263 7.08818 0.951263 7.10793C0.951263 9.24208 2.49677 11.0239 4.54834 11.4277C4.17158 11.5286 3.77518 11.5828 3.36606 11.5828C3.07759 11.5828 2.79655 11.5548 2.52338 11.5033C3.09419 13.2542 4.74941 14.5283 6.71182 14.564C5.17724 15.7461 3.24411 16.4502 1.14311 16.4502C0.781645 16.4502 0.42456 16.43 0.0736084 16.3892C2.05794 17.6393 4.41414 18.3687 6.94656 18.3687" fill="#0A033C"/>
</svg>
