<svg width="274" height="41" viewBox="0 0 274 41" fill="none" xmlns="http://www.w3.org/2000/svg">
<path fill-rule="evenodd" clip-rule="evenodd" d="M5.15439 15.4024C5.69591 13.9358 6.4405 12.7851 7.38817 11.9389C7.51226 11.8825 7.64764 11.86 7.78303 11.8374C7.91841 11.8261 8.24557 11.8148 8.77581 11.8148C9.06914 11.8148 9.31734 11.8374 9.54297 11.8712C9.7686 11.9164 9.99424 11.9953 10.2312 12.1082C10.4681 12.2323 10.7501 12.3902 11.066 12.6046L7.03843 15.8085L7.9861 16.5644V27.2369C6.95946 26.7405 6.10205 25.9395 5.53797 24.9467C4.74825 23.5816 4.35339 21.7427 4.35339 19.4525C4.34211 18.2115 4.61287 16.8577 5.15439 15.4024ZM4.78209 11.3072C5.01901 11.3072 5.32362 11.3523 5.69591 11.4313C6.06821 11.5102 6.40666 11.5892 6.72255 11.6682C4.51133 12.6497 2.79652 14.263 1.58938 16.5306C0.540178 18.5274 -0.00134334 20.7499 0.00993835 23.0175C0.00993835 25.9169 1.01401 28.3989 3.03343 30.4634C5.05286 32.528 7.51226 33.5659 10.4004 33.5659C13.187 33.5659 15.5561 32.4942 17.474 30.3619C19.3919 28.2297 20.3621 25.7139 20.3621 22.8145C20.1026 23.4237 19.798 23.9314 19.4709 24.3375C19.0534 24.8339 18.5796 25.2964 18.0719 25.7026C17.6771 26.041 17.3161 26.3005 17.0002 26.4697C16.6843 26.639 16.2781 26.8307 15.7705 27.0451V12.8076C16.4022 12.5481 16.9099 12.2774 17.2935 11.9953C17.6771 11.7246 18.0945 11.3184 18.5458 10.7882C19.7078 9.50209 20.3508 8.05804 20.4862 6.4786C19.6401 7.0314 18.8842 7.43754 18.2073 7.7083C17.5304 7.96778 16.7745 8.14829 15.9397 8.22726C15.8043 8.22726 15.6238 8.23854 15.3869 8.26111C14.4618 8.26111 13.0854 7.90009 11.2578 7.17806C9.43015 6.45604 7.9861 6.09502 6.92562 6.09502C4.8385 6.09502 3.16881 7.07653 1.90526 9.01698C0.777094 10.7544 0.201727 12.8189 0.201727 15.2219C0.359671 14.4886 0.743248 13.7891 1.35246 13.1235C1.80373 12.6271 2.32269 12.1984 2.89805 11.86C3.46214 11.4989 4.09391 11.3072 4.78209 11.3072ZM24.0287 33.3628L27.4696 29.5271L25.7322 27.7107V17.4331L26.725 16.7675L29.489 18.8659V32.4265C29.489 33.1936 29.4439 33.848 29.3536 34.3895C29.2747 34.8971 29.0603 35.3823 28.7444 35.7884L27.7742 36.9955C27.3342 37.5371 26.7927 37.9658 26.1383 38.2817C27.4583 38.1463 28.5413 37.8529 29.3762 37.3904C30.2223 36.9278 31.091 36.1945 31.9823 35.2018C32.6366 34.4572 33.133 33.7239 33.4602 32.9905C33.7986 32.2347 34.013 31.4337 34.1145 30.6214V15.425L32.9299 15.5039L29.2182 13.0107L26.5332 15.2219L25.6645 14.7481V7.23447L24.8748 5.53094L21.3549 8.97185V28.4553L20.2831 29.7189L24.0287 33.3628ZM35.8068 29.0532L42.1696 33.0808L48.2166 26.7179L44.9336 29.0532L40.9061 26.1651V23.4801L48.1038 18.0987L43.5234 11.9277L36.2129 17.027V28.1733L35.8068 29.0532ZM56.9599 9.17492V16.5644C56.4297 16.6208 56.001 16.7111 55.6738 16.8465C55.3466 16.9818 54.9969 17.2075 54.6246 17.5234C53.5641 18.3469 53.0452 19.3961 53.0452 20.6822C53.0339 21.0884 53.0903 21.4832 53.2031 21.8668C53.5754 21.5509 53.9364 21.3366 54.2862 21.235C54.6472 21.1335 55.0872 21.0771 55.6174 21.0771C55.8769 21.0771 56.0912 21.1109 56.2492 21.1561C56.4071 21.2125 56.644 21.314 56.9599 21.472V28.7374L62.4203 34.2315L67.4406 29.1322L73.4876 34.2315L82.2986 25.6913V11.0702L76.8383 6.88474L72.8107 10.5174L67.3165 6.88474L62.4203 10.9913V8.58827C62.4203 7.79856 61.8562 6.9073 60.7167 5.90323C60.3783 5.66632 60.0511 5.41812 59.7465 5.16993C59.4419 4.92173 59.2614 4.56071 59.2163 4.09817C59.1711 3.72587 59.1486 3.35357 59.1373 2.97C59.1373 2.07875 59.4419 1.35672 60.0511 0.837761C59.8255 0.792634 59.5998 0.770071 59.3742 0.758789C58.1896 0.758789 57.1404 1.25518 56.2379 2.23669C55.3241 3.22948 54.8728 4.3238 54.8728 5.54222C54.8728 5.72273 54.8954 5.98221 54.9518 6.29809C55.1774 7.5842 55.843 8.54315 56.9599 9.17492ZM83.3591 29.2563L88.2553 32.6972L91.8091 29.3353L96.0397 32.3024L99.6724 28.3876H98.4089L96.7956 26.7179V15.1429L95.9269 15.3009L91.8204 11.86L84.036 17.23V28.5681L83.3591 29.2563ZM106.938 12.6271C106.441 12.3902 105.968 12.0856 105.539 11.7359L99.0971 16.2824V23.9539L99.695 24.4277H103.531L98.5555 33.0808C99.3227 32.4265 99.9093 31.9865 100.338 31.7721C100.936 31.4788 101.602 31.3321 102.278 31.3321C103.125 31.3321 103.802 31.4337 104.332 31.6255C104.862 31.8173 105.404 32.167 105.956 32.6747L112.274 27.6994V19.9151L111.8 19.4412H107.57V19.0464L111.326 12.4466C110.932 12.6835 110.616 12.8189 110.379 12.864C109.995 12.9092 109.612 12.9317 109.228 12.9204H108.393C107.886 12.9317 107.389 12.8302 106.938 12.6271ZM116.956 32.81L120.431 28.9404L118.693 27.1241V16.8465L119.641 16.1696L122.45 18.3018V31.8172C122.461 32.4716 122.416 33.1259 122.315 33.7803C122.225 34.2879 122.01 34.7618 121.66 35.1792C121.446 35.4387 121.164 35.8222 120.792 36.3299C120.318 36.8827 119.743 37.334 119.088 37.6724C120.295 37.5709 121.378 37.2776 122.315 36.7925C123.251 36.3074 124.131 35.5853 124.943 34.6377C125.553 33.9269 126.026 33.1823 126.365 32.4039C126.703 31.6255 126.929 30.8245 127.042 30.0122V14.827L125.891 14.9511L122.134 12.4579L119.449 14.6353L118.581 14.1614V6.68167L117.825 4.94429L114.271 8.3852V27.9138L113.199 29.1322L116.956 32.81ZM135.966 9.45696L132.412 6.56885L129.524 9.72772L132.525 12.4579L135.966 9.45696ZM130.392 18.3808V29.1322L129.637 30.2829H130.979L134.059 32.889L137.297 29.9219L141.449 33.2839L145.081 29.2563L143.931 27.801V17.7264L144.878 17.2526L146.977 19.5428V29.4143L150.654 32.6182L154.208 28.5907H152.55L151.602 27.0451V16.2937L152.076 15.3009L151.128 15.5039L147.496 12.6158L143.942 16.2937L139.79 13.0107L136.349 16.8465H137.692L138.842 18.189V28.0605L136.552 28.8502L135.086 27.6994V16.6321L135.559 15.9552L131.453 12.9092L128.091 16.4629L129.242 16.8239L130.392 18.3808ZM201.456 28.7825L200.316 27.3159V17.2413L201.264 16.7675L203.362 19.0577V28.9743L207.04 32.1331L210.594 28.1056H208.936L207.988 26.56V15.8085L208.462 14.8609L207.514 15.0188L203.881 12.1307L200.328 15.8085L196.176 12.5256L192.735 16.3614H194.078L195.228 17.7039V27.6205L193.807 29.5158L198.195 32.4039L201.456 28.7825ZM154.975 28.8615C155.506 28.8615 155.979 28.9291 156.419 29.0645C156.859 29.1999 157.277 29.4255 157.705 29.7527C158.123 30.0799 158.439 30.3958 158.631 30.7004C158.822 31.005 158.992 31.4224 159.127 31.9413L157.074 34.5925L154.896 37.5145C155.449 37.1986 155.923 37.0068 156.318 36.9391C156.713 36.8714 157.288 36.8376 158.055 36.8376C158.946 36.9166 159.714 37.1309 160.345 37.4694C160.977 37.8078 161.553 38.3268 162.083 39.015C163.346 38.5411 164.813 37.4807 166.494 35.8561C168.175 34.2202 169.01 32.8777 169.01 31.8285C169.01 31.648 168.818 31.0727 168.434 30.1363C168.051 29.1773 167.859 28.162 167.859 27.1241V14.827L162.365 11.3861L155.449 16.2824V27.9815L154.975 28.8615ZM168.615 15.346H170.905V29.0645L170.352 30.1363H171.695L174.583 32.3475L178.295 28.1169H176.67L175.598 26.9661V15.6168L177.934 12.7287H175.598V5.18121L170.894 9.56978V12.5707L168.615 15.346ZM178.61 28.8615L183.507 32.3362L192.047 26.3682V14.7481L191.178 14.9511L187.06 11.4764L179.276 16.8465V28.1958L178.61 28.8615ZM218.728 9.25389V12.9317C218.04 12.9317 217.465 12.9994 216.991 13.1461C216.517 13.2927 216.066 13.5748 215.626 13.9922C215.186 14.4096 214.938 14.906 214.859 15.4588C214.78 16.0116 214.734 16.7336 214.734 17.6362C214.734 18.0085 214.723 18.2567 214.689 18.3921C215.265 17.467 216.077 17.0834 217.104 17.2413C217.792 17.3429 218.333 17.6362 218.728 18.11V24.236C217.521 24.8677 216.461 25.7026 215.569 26.7292C214.565 27.9138 213.888 29.1322 213.55 30.407C214.001 30.0573 214.475 29.7414 214.971 29.4819C215.366 29.2789 215.919 29.0871 216.63 28.8727C216.889 28.7938 217.194 28.7035 217.544 28.6133C217.882 28.523 218.277 28.4779 218.728 28.4779V40.2898L223.906 36.0592L225.644 37.3227V30.5988L227.855 31.3547L235.324 26.1764V8.78006L230.54 4.94429L225.644 9.05082V6.88474L224.696 6.09502V9.56978L223.906 10.1226V6.48988L219.879 3.3987L215.095 8.10316C215.49 7.86625 215.896 7.74215 216.314 7.74215C216.652 7.74215 216.991 7.79856 217.307 7.90009C218.017 8.17085 218.491 8.62212 218.728 9.25389ZM236 29.2563L240.897 32.6972L249.471 26.7292V15.1429L248.602 15.3009L244.45 11.86L236.666 17.23V28.5681L236 29.2563ZM258.688 12.4579C258.18 12.2097 257.684 11.9164 257.221 11.5892L250.813 16.0906V23.7621L251.366 24.236H255.202L250.227 32.889C250.779 32.4152 251.242 32.0654 251.614 31.8172C252.302 31.366 253.092 31.1403 253.983 31.1403C254.807 31.1403 255.473 31.2419 256.003 31.4337C256.533 31.6367 257.075 31.9752 257.627 32.4829L263.956 27.5076V19.7233L263.483 19.2495H259.252V18.8546L263.009 12.2548C262.614 12.4917 262.298 12.6271 262.061 12.6722C261.824 12.7174 261.441 12.7287 260.91 12.7287H260.087C259.545 12.7287 259.083 12.6384 258.688 12.4579ZM264.058 15.5378H266.348V29.2563L265.795 30.3281H267.138L269.981 32.5393L273.738 28.3086H272.113L271.041 27.1579V15.8198L273.332 12.9317H271.041V5.38428L266.359 9.77285V12.7738L264.058 15.5378ZM88.7292 15.8988L91.8091 18.189V27.3948L90.8163 28.4666L88.7179 26.6502L88.7292 15.8988ZM165.253 32.0993C165.885 32.5506 166.201 33.1146 166.201 33.8028C166.201 34.1187 166.167 34.3556 166.122 34.5136C165.964 34.7505 165.84 34.9084 165.761 34.9874C165.546 35.2018 165.275 35.3371 164.971 35.3823C164.632 35.4387 164.181 35.2694 163.628 34.8859C163.076 34.5023 162.241 34.3105 161.135 34.3105C160.424 34.3105 159.781 34.3782 159.195 34.5136C158.619 34.649 158.01 34.8746 157.378 35.1905L163.155 28.0717V28.9855C163.155 29.5158 163.2 29.9445 163.29 30.2942C163.38 30.6327 163.583 30.9711 163.899 31.287C164.35 31.5578 164.802 31.8398 165.253 32.0993ZM160.154 15.425L163.155 17.6362V26.5713L162.286 27.5189L160.154 25.3867V15.425ZM40.9061 22.3406V16.5644L43.7942 20.1971L40.9061 22.3406ZM108.619 15.8198L105.934 20.6033H103.914V15.425C104.704 15.9214 105.561 16.1808 106.487 16.1808C107.22 16.1696 107.931 16.0567 108.619 15.8198ZM183.981 15.5039L187.06 17.8393V27.0451L186.079 28.1169L183.981 26.2554V15.5039ZM104.659 23.4801H107.547V28.5794C107.141 28.4327 106.723 28.3199 106.306 28.241C106.024 28.2071 105.46 28.1846 104.591 28.1846C104.084 28.1733 103.587 28.2297 103.091 28.3425C102.673 28.444 102.166 28.6245 101.59 28.8615L104.659 23.4801ZM223.906 12.7287L224.696 12.0517V34.6151L223.906 34.1413V12.7287ZM225.644 11.4651L228.058 9.91951L229.795 11.1831V26.041C228.972 25.5672 228.532 25.319 228.453 25.2852L227.584 25.0031C226.941 24.8452 226.287 24.6872 225.644 24.5293V11.4651ZM14.4618 13.2025C14.7213 13.2025 14.9356 13.1799 15.0936 13.1235V27.5076C14.1008 28.004 13.0064 28.2635 11.8896 28.2635C11.2352 28.2635 10.5696 28.1845 9.91527 28.0266C9.26093 27.8687 8.74197 27.6543 8.36967 27.3948L12.8711 22.8934V13.0107C13.0629 13.1122 13.2659 13.1799 13.4803 13.1912C13.7059 13.2025 13.8526 13.2138 13.9315 13.2138L14.4618 13.2025ZM241.382 15.8988L244.462 18.189V27.3948L243.514 28.4666L241.382 26.6502V15.8988ZM62.409 12.142L63.8756 10.9913L66.9217 14.0712V28.2635L65.692 29.5271L62.409 26.3682V12.142ZM259.32 15.8988C259.658 15.8424 259.997 15.7521 260.301 15.6168L257.616 20.4002H255.597V15.2219C256.375 15.7183 257.278 15.9778 258.203 15.9778C258.609 15.9778 258.981 15.9439 259.32 15.8988ZM256.353 23.2883H259.241V28.3876C258.835 28.241 258.417 28.1281 258 28.0492C257.718 28.004 257.154 27.9928 256.274 27.9928C255.766 27.9815 255.258 28.0379 254.773 28.1507C254.277 28.2861 253.78 28.4553 253.307 28.6697L256.353 23.2883ZM72.7994 12.142L74.2322 10.9913L77.3121 14.0712V28.2635L76.0486 29.5271L72.8107 26.3682L72.7994 12.142Z" fill="#344054"/>
</svg>
