<svg width="181" height="35" viewBox="0 0 181 35" fill="none" xmlns="http://www.w3.org/2000/svg">
<path d="M161.703 27.6737H168.207C168.459 28.4937 169.317 29.3136 170.925 29.3136C173.102 29.3136 173.852 27.9614 173.852 25.9619V24.5377H173.708C172.634 25.7892 171.206 26.7099 169.101 26.7099C164.955 26.7099 161.35 23.6458 161.35 17.6543C161.35 12.1663 164.313 7.88671 168.784 7.88671C171.358 7.88671 172.929 8.92245 173.968 10.5624H174.076V8.46212H180.507V25.07C180.507 28.134 179.433 30.522 177.825 31.9533C176.145 33.4494 173.751 34.0536 171.033 34.0536C165.921 34.0536 162.352 31.9461 161.703 27.6737ZM174.141 17.3307C174.141 14.9427 173.001 13.0151 171.033 13.0151C169.137 13.0151 167.926 14.7269 167.926 17.3307C167.926 19.8984 169.144 21.747 171.033 21.747C172.994 21.7542 174.141 19.8625 174.141 17.3307ZM154.169 11.7348H154.277C155.668 9.05911 157.493 8.06653 159.814 8.06653C160.348 8.06653 160.708 8.13845 160.925 8.24634V14.1299H160.78C156.815 13.4179 154.493 15.3095 154.493 19.6179V27.6377H147.737V8.46212H154.169V11.7348ZM0.5 0.758789H13.7233C16.2252 0.758789 18.1503 1.36297 19.513 2.47064C21.0488 3.71497 21.8707 5.57068 21.8707 7.77882C21.8707 10.3466 20.8325 11.9506 18.6911 12.9503V13.0582C21.4814 13.9861 23.0892 16.4819 23.0892 19.51C23.0892 22.3943 21.9789 24.6456 20.1619 25.9978C18.6262 27.1055 16.629 27.6377 13.9829 27.6377H0.5V0.758789ZM13.0816 21.6822C14.6895 21.6822 15.8647 20.7184 15.8647 18.9346C15.8647 17.0789 14.5813 16.187 13.0456 16.187H7.82546V21.675H13.0816V21.6822ZM12.3967 11.2745C13.8243 11.2745 14.8625 10.4905 14.8625 8.92245C14.8625 7.39042 13.7882 6.64238 12.3606 6.64238H7.82546V11.2745H12.3967Z" fill="#344054"/>
<path d="M24.3005 0.758789H31.2294V27.6377H24.3005V0.758789ZM32.556 18.0787C32.556 12.0225 36.4855 7.92267 42.5637 7.92267C48.6418 7.92267 52.4992 12.0225 52.4992 18.0787C52.4992 24.1781 48.6418 28.2347 42.5637 28.2347C36.4855 28.2419 32.556 24.1781 32.556 18.0787ZM45.6352 18.0787C45.6352 14.7269 44.5608 12.6267 42.4916 12.6267C40.4223 12.6267 39.4201 14.7269 39.4201 18.0787C39.4201 21.4664 40.4223 23.5667 42.4916 23.5667C44.5608 23.5739 45.6352 21.4664 45.6352 18.0787ZM53.2851 18.0787C53.2851 12.0225 57.2146 7.92267 63.2927 7.92267C69.3708 7.92267 73.2282 12.0225 73.2282 18.0787C73.2282 24.1781 69.3708 28.2347 63.2927 28.2347C57.2146 28.2419 53.2851 24.1781 53.2851 18.0787ZM66.3642 18.0787C66.3642 14.7269 65.2899 12.6267 63.2206 12.6267C61.1513 12.6267 60.1491 14.7269 60.1491 18.0787C60.1491 21.4664 61.1513 23.5667 63.2206 23.5667C65.2899 23.5739 66.3642 21.4664 66.3642 18.0787ZM74.5476 8.46212H80.979V11.3464H81.0872C82.3706 9.10227 84.1226 7.88671 86.8769 7.88671C89.3067 7.88671 91.1308 9.09508 92.0609 11.2025H92.1691C93.7409 8.67071 95.7813 7.88671 98.139 7.88671C102.609 7.88671 104.534 11.1666 104.534 15.5829V27.6305H97.7785V16.7984C97.7785 14.8348 97.1729 13.5545 95.4569 13.5545C93.7769 13.5545 92.9189 15.1225 92.9189 17.194V27.6377H86.1559V16.7984C86.1559 14.8348 85.5502 13.5545 83.8342 13.5545C82.1543 13.5545 81.2963 15.1225 81.2963 17.194V27.6377H74.5476V8.46212ZM112.783 25.1419H112.711V27.6377H106.279V0.758789H113.035V10.4545H113.143C114.427 8.7786 116.143 7.88671 118.608 7.88671C123.432 7.88671 126.222 12.2383 126.222 18.0068C126.222 24.5305 123.187 28.2707 118.183 28.2707C116.107 28.2779 113.965 27.2781 112.783 25.1419ZM119.358 17.942C119.358 14.842 118.219 12.8424 116.179 12.8424C114.109 12.8424 112.783 14.842 112.783 17.942C112.783 21.0061 114.102 23.0416 116.179 23.0416C118.248 23.0344 119.358 21.0421 119.358 17.942ZM127.08 18.014C127.08 12.0225 131.046 7.85794 136.8 7.85794C139.655 7.85794 141.875 8.74983 143.555 10.3538C145.769 12.49 146.771 15.8418 146.699 19.7977H133.8C134.089 22.1857 135.228 23.4013 137.268 23.4013C138.451 23.4013 139.482 22.869 139.914 21.5815H146.418C145.279 25.9618 141.883 28.1772 137.059 28.1772C131.082 28.17 127.08 24.1421 127.08 18.014ZM133.8 16.0144H139.943C139.835 13.6984 138.552 12.4828 136.944 12.4828C135.084 12.4828 134.045 13.8063 133.8 16.0144Z" fill="#344054"/>
</svg>
