<svg width="14" height="16" viewBox="0 0 14 16" fill="none" xmlns="http://www.w3.org/2000/svg">
<path d="M13.0322 10.0881L9.90021 8.59411L8.57581 7.96231C9.15421 7.59791 9.62401 7.03551 9.93141 6.35811C10.1878 5.79338 10.3204 5.18033 10.3204 4.56011C10.3204 4.19471 10.2624 3.84771 10.1816 3.51291C9.78761 1.89051 8.52061 0.695312 6.99961 0.695312C5.50741 0.695312 4.25961 1.84791 3.84121 3.42411C3.74461 3.78571 3.67821 4.16171 3.67821 4.56011C3.67821 5.25191 3.83981 5.89691 4.11441 6.45791C4.43181 7.10871 4.90241 7.64531 5.47521 7.99031L4.20681 8.58091L0.973212 10.0869C0.692412 10.2185 0.507812 10.5353 0.507812 10.8891V14.4421C0.507812 14.9183 0.839613 15.3043 1.24921 15.3043H6.05181V12.5839C6.05248 12.5559 6.0607 12.5285 6.07561 12.5047L6.07361 12.5035L6.86021 11.1411L6.86221 11.1423C6.89021 11.0943 6.94001 11.0603 6.99961 11.0603C7.05921 11.0603 7.10901 11.0941 7.13701 11.1423L7.13781 11.1417L7.14501 11.1543C7.14601 11.1563 7.14741 11.1579 7.14821 11.1599L7.92441 12.5041L7.92341 12.5047C7.93833 12.5286 7.94655 12.556 7.94721 12.5841V15.3045H12.7498C13.1594 15.3045 13.4914 14.9185 13.4914 14.4423V10.8891C13.492 10.5365 13.3104 10.2227 13.0322 10.0881ZM7.92401 9.17711L7.92601 9.17831L7.13921 10.5407L7.13721 10.5395C7.12356 10.5641 7.10366 10.5845 7.07953 10.5989C7.0554 10.6133 7.02789 10.621 6.99981 10.6213C6.97173 10.621 6.94423 10.6133 6.9201 10.5989C6.89597 10.5845 6.87606 10.5641 6.86241 10.5395L6.86141 10.5401L6.85341 10.5263C6.85281 10.5249 6.85161 10.5237 6.85101 10.5223L6.07481 9.17771L6.07561 9.17711C6.06069 9.15326 6.05247 9.12584 6.05181 9.09771C6.05181 9.00871 6.12401 8.93651 6.21301 8.93651H7.78621C7.87521 8.93651 7.94741 9.00871 7.94741 9.09771C7.94709 9.12583 7.93899 9.15331 7.92401 9.17711Z" fill="#224C75"/>
</svg>
