<svg width="22" height="23" viewBox="0 0 22 23" fill="none" xmlns="http://www.w3.org/2000/svg">
<g clip-path="url(#clip0_346_641)">
<path d="M16.499 0.646179L13.6462 0.641602C10.441 0.641602 8.36976 2.76667 8.36976 6.05578V8.55207H5.50132C5.25345 8.55207 5.05273 8.75302 5.05273 9.00089V12.6177C5.05273 12.8656 5.25368 13.0663 5.50132 13.0663H8.36976V22.1928C8.36976 22.4407 8.57048 22.6414 8.81835 22.6414H12.5609C12.8087 22.6414 13.0094 22.4404 13.0094 22.1928V13.0663H16.3633C16.6112 13.0663 16.8119 12.8656 16.8119 12.6177L16.8133 9.00089C16.8133 8.88187 16.7659 8.7679 16.6819 8.68367C16.5979 8.59945 16.4835 8.55207 16.3645 8.55207H13.0094V6.43593C13.0094 5.41883 13.2518 4.90249 14.5767 4.90249L16.4986 4.90181C16.7462 4.90181 16.9469 4.70086 16.9469 4.45322V1.09477C16.9469 0.847357 16.7464 0.646637 16.499 0.646179Z" fill="#0A033C"/>
</g>
<defs>
<clipPath id="clip0_346_641">
<rect width="22" height="21.9998" fill="white" transform="translate(0 0.641602)"/>
</clipPath>
</defs>
</svg>
