<svg width="116" height="30" viewBox="0 0 116 30" fill="none" xmlns="http://www.w3.org/2000/svg">
<path fill-rule="evenodd" clip-rule="evenodd" d="M70.5531 8.89702C68.7216 8.89702 67.2717 9.27731 65.8218 10.1139C65.8218 5.93075 65.8218 2.05178 65.9744 0.758789L57.0461 2.35601V3.11659L57.9618 3.26871C59.1828 3.49688 59.5643 4.18141 59.7933 5.77863C60.0222 8.97307 59.9459 25.7819 59.7933 28.5961C62.1589 29.1285 64.6772 29.5088 67.1954 29.5088C74.216 29.5088 78.4131 25.1735 78.4131 18.3282C78.4894 12.852 75.0554 8.89702 70.5531 8.89702ZM67.5006 27.9876C66.9665 27.9876 66.2797 27.9876 65.8981 27.8355C65.7455 26.0101 65.6692 18.2522 65.7455 11.4069C66.5086 11.1788 67.0428 11.0266 67.7296 11.0266C70.6294 11.0266 72.2319 14.4493 72.2319 18.6325C72.2319 23.9565 70.2478 27.9876 67.5006 27.9876Z" fill="#344054"/>
<path fill-rule="evenodd" clip-rule="evenodd" d="M23.7747 1.29106H0.5V2.508L1.79728 2.66011C3.55242 2.88829 4.16291 3.9531 4.46815 6.46302C4.8497 11.1786 4.69708 19.7732 4.46815 23.8804C4.23922 26.3903 3.55242 27.5311 1.79728 27.6833L0.5 27.9114V28.9762H15.4569V27.9114L13.8543 27.6833C12.0992 27.5311 11.4887 26.3903 11.1835 23.8804C11.0309 22.131 10.9545 19.3929 10.9545 15.9703L14.1596 16.1224C16.1437 16.1224 17.0594 17.7196 17.4409 19.9253H18.6619V10.4941H17.4409C17.0594 12.6998 16.1437 14.297 14.1596 14.297L10.9545 14.4491C10.9545 9.9617 11.1072 5.7785 11.1835 3.26858H15.8384C19.425 3.26858 21.2565 5.47427 22.5537 9.42929L23.851 9.049L23.7747 1.29106Z" fill="#344054"/>
<path fill-rule="evenodd" clip-rule="evenodd" d="M31.2532 8.66889C37.8922 8.66889 41.1735 13.1563 41.1735 19.0889C41.1735 24.7172 37.5106 29.5088 30.8716 29.5088C24.2326 29.5088 20.9512 25.0214 20.9512 19.0889C20.9512 13.3845 24.6904 8.66889 31.2532 8.66889ZM30.8716 9.96188C27.9718 9.96188 27.2087 13.9169 27.2087 19.0128C27.2087 24.0326 28.506 28.0637 31.1768 28.0637C34.2293 28.0637 34.9924 24.1087 34.9924 19.0128C34.9924 14.069 33.6951 9.96188 30.8716 9.96188Z" fill="#344054"/>
<path fill-rule="evenodd" clip-rule="evenodd" d="M80.1682 19.165C80.1682 13.7648 83.6022 8.59289 90.3175 8.59289C95.8882 8.59289 98.4827 12.7 98.4827 18.1002H86.1967C86.0441 22.9679 88.4098 26.5426 93.2173 26.5426C95.354 26.5426 96.4223 26.0102 97.7196 25.0975L98.2538 25.782C96.9565 27.6074 94.0567 29.4328 90.3175 29.4328C84.4416 29.5089 80.1682 25.2496 80.1682 19.165ZM86.2731 16.7311L92.4542 16.579C92.4542 13.917 92.0727 9.96193 89.7833 9.96193C87.5703 9.96193 86.4257 13.6888 86.2731 16.7311Z" fill="#344054"/>
<path fill-rule="evenodd" clip-rule="evenodd" d="M114.279 9.73371C112.676 9.04918 110.616 8.66889 108.174 8.66889C103.29 8.66889 100.238 11.5591 100.238 14.9817C100.238 18.4043 102.451 19.8494 105.656 20.9143C108.937 22.1312 109.853 23.0439 109.853 24.5651C109.853 26.1623 108.632 27.6074 106.572 27.6074C104.053 27.6074 102.222 26.1623 100.772 22.2073L99.8563 22.4354L100.009 28.2159C101.611 28.9004 104.511 29.4328 107.03 29.4328C112.219 29.4328 115.5 26.7707 115.5 22.7397C115.5 20.0016 114.05 18.4043 110.616 17.1114C106.953 15.6662 105.58 14.7535 105.58 13.0042C105.58 11.2549 106.801 10.114 108.327 10.114C110.692 10.114 112.295 11.5591 113.516 15.1338L114.432 14.9057L114.279 9.73371Z" fill="#344054"/>
<path fill-rule="evenodd" clip-rule="evenodd" d="M58.3434 9.20139C56.1304 7.9084 52.1622 8.51686 50.0255 13.3085L50.1782 8.66898L41.3261 10.4183V11.1789L42.2419 11.331C43.4628 11.4831 43.997 12.0916 44.0733 13.8409C44.3023 17.0354 44.2259 22.5116 44.0733 25.3257C43.9207 26.9229 43.3865 27.6835 42.2419 27.8356L41.3261 27.9878V29.0526H53.6121V27.9878L52.0096 27.8356C50.7123 27.6835 50.2545 26.9229 50.1782 25.3257C49.9492 22.8158 49.9492 17.796 50.0255 14.6776C50.7123 13.7649 53.6121 12.9282 56.2067 14.6776L58.3434 9.20139Z" fill="#344054"/>
</svg>
