<svg width="166" height="25" viewBox="0 0 166 25" fill="none" xmlns="http://www.w3.org/2000/svg">
<path d="M27.5113 21.1609V3.08057C27.5113 2.13998 27.7197 1.43453 28.1625 0.964235C28.5793 0.493938 29.1523 0.258789 29.8296 0.258789C30.5328 0.258789 31.1059 0.493938 31.5226 0.964235C31.9655 1.43453 32.1738 2.13998 32.1738 3.08057V21.1609C32.1738 22.1015 31.9655 22.833 31.5226 23.3033C31.0798 23.7736 30.5328 24.0088 29.8296 24.0088C29.1523 24.0088 28.6053 23.7736 28.1886 23.3033C27.7458 22.8069 27.5113 22.1015 27.5113 21.1609Z" fill="#344054"/>
<path d="M153.555 23.9827C147.043 23.9827 141.73 18.6526 141.73 12.1207C141.73 5.58882 147.043 0.258789 153.555 0.258789C160.067 0.258789 165.381 5.58882 165.381 12.1207C165.381 18.6788 160.093 23.9827 153.555 23.9827ZM153.555 5.06627C149.674 5.06627 146.523 8.22771 146.523 12.1207C146.523 16.0137 149.674 19.1752 153.555 19.1752C157.436 19.1752 160.588 16.0137 160.588 12.1207C160.588 8.25384 157.436 5.06627 153.555 5.06627Z" fill="#344054"/>
<path d="M100.496 23.9827C93.9846 23.9827 88.6709 18.6526 88.6709 12.1207C88.6709 5.58882 93.9846 0.258789 100.496 0.258789C107.008 0.258789 112.322 5.58882 112.322 12.1207C112.322 18.6788 107.008 23.9827 100.496 23.9827ZM100.496 5.06627C96.6154 5.06627 93.4636 8.22771 93.4636 12.1207C93.4636 16.0137 96.6154 19.1752 100.496 19.1752C104.378 19.1752 107.529 16.0137 107.529 12.1207C107.529 8.25384 104.378 5.06627 100.496 5.06627Z" fill="#344054"/>
<path d="M137.953 12.1207C137.953 9.50797 137.093 7.0781 135.661 5.11853C133.577 2.27062 130.243 0.389427 126.466 0.258789C126.336 0.258789 126.231 0.258789 126.101 0.258789H120.162C119.146 0.258789 118.417 0.493938 117.974 0.964235C117.531 1.43453 117.297 2.1661 117.297 3.21121V21.0564C117.297 22.1015 117.531 22.833 117.974 23.3033C118.417 23.7736 119.172 24.0088 120.162 24.0088H126.101C126.231 24.0088 126.336 24.0088 126.466 24.0088C130.243 23.9043 133.551 22.0231 135.661 19.1491C137.093 17.1634 137.953 14.7335 137.953 12.1207ZM126.961 19.1229C126.388 19.1491 125.763 19.1752 125.111 19.1752H122.012V5.06627H125.111C125.763 5.06627 126.388 5.06627 126.961 5.11853C129.018 5.35367 130.79 6.50329 131.91 8.1232C132.691 9.24669 133.16 10.6315 133.16 12.1207C133.16 13.61 132.691 14.9686 131.91 16.0921C130.79 17.7643 129.018 18.8878 126.961 19.1229Z" fill="#344054"/>
<path d="M81.9766 0.363237C81.117 0.101961 80.1793 0.44162 79.6844 1.19932L72.5474 12.0945L65.4104 1.19932C64.9155 0.44162 63.9778 0.101961 63.1182 0.363237C62.2587 0.624513 61.6596 1.4606 61.6596 2.37506V21.7356C61.6596 22.8852 62.5712 23.852 63.7173 23.852C64.8374 23.852 65.7751 22.9114 65.7751 21.7356V9.27275L70.8283 17.0065C70.8283 17.0065 70.8283 17.0065 70.8283 17.0326C70.8283 17.0326 70.8283 17.0588 70.8543 17.0588C70.8804 17.111 70.9064 17.1633 70.9585 17.1894C70.9846 17.2155 70.9846 17.2155 71.0106 17.2417C71.0367 17.2678 71.0627 17.3201 71.0888 17.3462C71.1148 17.3723 71.1409 17.3984 71.1669 17.4246C71.1929 17.4507 71.219 17.4507 71.219 17.4768C71.2711 17.5029 71.2971 17.5291 71.3492 17.5813L71.3753 17.6075C71.4274 17.6336 71.4795 17.6597 71.5055 17.6858C71.5316 17.6858 71.5316 17.712 71.5316 17.712C71.5576 17.7381 71.6097 17.7381 71.6358 17.7642C71.8441 17.8687 72.0525 17.921 72.2869 17.9471C72.339 17.9471 72.3651 17.9471 72.4172 17.9471C72.4432 17.9471 72.4693 17.9471 72.4953 17.9471C72.5214 17.9471 72.5474 17.9471 72.5735 17.9471C72.6256 17.9471 72.6516 17.9471 72.7037 17.9471C72.9121 17.921 73.1465 17.8687 73.3549 17.7642C73.3809 17.7381 73.433 17.7381 73.4591 17.712L73.4851 17.6858C73.5372 17.6597 73.5893 17.6336 73.6154 17.6075C73.6414 17.6075 73.6414 17.5813 73.6414 17.5813C73.6935 17.5552 73.7196 17.5291 73.7717 17.4768C73.7977 17.4507 73.8238 17.4507 73.8238 17.4246C73.8498 17.3984 73.8758 17.3723 73.9019 17.3462C73.9279 17.3201 73.954 17.2939 73.98 17.2417C74.0061 17.2155 74.0061 17.2155 74.0321 17.1894C74.0582 17.1372 74.1103 17.111 74.1363 17.0588L74.1624 17.0326C74.1624 17.0326 74.1624 17.0326 74.1624 17.0065L79.2156 9.27275V21.7356C79.2156 22.8852 80.1272 23.852 81.2733 23.852C82.3934 23.852 83.3311 22.9114 83.3311 21.7356V2.37506C83.4353 1.4606 82.8362 0.624513 81.9766 0.363237Z" fill="#344054"/>
<path d="M54.6788 23.2772H39.3369C38.5294 23.2772 37.6438 22.7808 37.3052 21.997C36.9665 21.2131 36.9144 20.1419 37.6177 19.2797L50.1466 4.67435H39.7797C38.6596 4.67435 37.7219 3.6815 37.7219 2.47964C37.7219 1.27777 38.6336 0.520065 39.7797 0.520065H53.7411C54.5486 0.520065 55.3821 0.650703 56.1115 1.46066C56.7887 2.19223 56.7366 3.78602 56.0073 4.72661L43.8952 18.8878H54.6788C55.8249 18.8878 56.6324 19.8806 56.6324 21.0825C56.6324 22.2844 55.8249 23.2772 54.6788 23.2772Z" fill="#344054"/>
<path d="M12.2474 23.9827C8.83521 23.9827 5.7616 22.624 3.54756 20.168C1.62004 18.0256 0.5 15.1777 0.5 12.3559C0.5 3.55087 7.79331 0.258789 12.4037 0.258789C16.936 0.258789 20.244 2.47964 20.4003 2.58415C21.4162 3.28959 21.7027 4.67435 20.9994 5.71946C20.3222 6.76456 18.9417 7.02584 17.9258 6.34652C17.8737 6.32039 15.5034 4.77886 12.4037 4.77886C9.51245 4.77886 5.52717 6.68618 5.52717 12.3559C5.52717 15.5696 7.92355 19.3842 12.2995 19.3842C14.774 19.3842 16.4932 18.731 17.509 18.0778V14.7335H14.1229C12.8986 14.7335 11.9088 13.7145 11.9088 12.4865C11.9088 11.2324 12.8986 10.2395 14.1229 10.2395H19.7752C20.9994 10.2395 21.9892 11.2585 21.9892 12.4865V19.2013C21.9892 19.8022 21.7548 20.4032 21.312 20.8212C19.8273 22.2844 16.5453 23.9827 12.2474 23.9827Z" fill="#344054"/>
</svg>
