<svg width="17" height="14" viewBox="0 0 17 14" fill="none" xmlns="http://www.w3.org/2000/svg">
<path d="M6.49995 1.16683V1.4835C5.80829 1.2085 5.06662 1.06683 4.32495 1.06683C3.14162 1.06683 1.95829 1.42516 0.949952 2.14183C0.524952 2.44183 0.474953 3.05016 0.841619 3.41683L2.98329 5.5585H3.90829V6.4835C4.62495 7.20016 5.55829 7.57516 6.49995 7.61683V9.50016H4.83329C4.37495 9.50016 3.99995 9.87516 3.99995 10.3335V12.0002C3.99995 12.9168 4.74995 13.6668 5.66662 13.6668H14C15.3833 13.6668 16.5 12.5502 16.5 11.1668V1.16683C16.5 0.708496 16.125 0.333496 15.6666 0.333496H7.33329C6.87495 0.333496 6.49995 0.708496 6.49995 1.16683ZM5.57495 5.67516V3.8835H3.67495L2.80829 3.01683C3.29216 2.83009 3.80629 2.73405 4.32495 2.7335C5.44162 2.7335 6.48329 3.16683 7.27495 3.95016L8.44995 5.12516L8.28329 5.29183C8.07392 5.50322 7.8247 5.67099 7.55006 5.78542C7.27542 5.89985 6.98081 5.95868 6.68329 5.9585C6.29162 5.9585 5.90829 5.8585 5.57495 5.67516ZM14.8333 11.1668C14.8333 11.6252 14.4583 12.0002 14 12.0002C13.5416 12.0002 13.1666 11.6252 13.1666 11.1668V10.3335C13.1666 9.87516 12.7916 9.50016 12.3333 9.50016H8.16662V7.34183C8.64162 7.15016 9.08329 6.86683 9.46662 6.4835L9.63329 6.31683L11.9916 8.66683H13.1666V7.49183L8.16662 2.51683V2.00016H14.8333V11.1668Z" fill="#224C75"/>
</svg>
