<svg width="20" height="20" viewBox="0 0 20 20" fill="none" xmlns="http://www.w3.org/2000/svg">
<path d="M9.16665 4.99992H11.6667L14.4083 2.24992C14.4858 2.17181 14.578 2.10981 14.6795 2.06751C14.7811 2.0252 14.89 2.00342 15 2.00342C15.11 2.00342 15.2189 2.0252 15.3205 2.06751C15.422 2.10981 15.5142 2.17181 15.5917 2.24992L17.7417 4.40825C17.8969 4.56439 17.984 4.77559 17.984 4.99575C17.984 5.2159 17.8969 5.42711 17.7417 5.58325L15.8333 7.49992H9.16665V9.16658C9.16665 9.3876 9.07885 9.59956 8.92257 9.75584C8.76629 9.91212 8.55433 9.99992 8.33332 9.99992C8.1123 9.99992 7.90034 9.91212 7.74406 9.75584C7.58778 9.59956 7.49998 9.3876 7.49998 9.16658V6.66658C7.49998 6.22456 7.67558 5.80063 7.98814 5.48807C8.3007 5.17551 8.72462 4.99992 9.16665 4.99992ZM4.16665 9.16658V12.4999L2.25832 14.4083C2.10311 14.5644 2.01599 14.7756 2.01599 14.9958C2.01599 15.2159 2.10311 15.4271 2.25832 15.5833L4.40832 17.7416C4.48579 17.8197 4.57796 17.8817 4.6795 17.924C4.78105 17.9663 4.88998 17.9881 4.99998 17.9881C5.10999 17.9881 5.21892 17.9663 5.32047 17.924C5.42201 17.8817 5.51418 17.8197 5.59165 17.7416L9.16665 14.1666H12.5C12.721 14.1666 12.933 14.0788 13.0892 13.9225C13.2455 13.7662 13.3333 13.5543 13.3333 13.3333V12.4999H14.1667C14.3877 12.4999 14.5996 12.4121 14.7559 12.2558C14.9122 12.0996 15 11.8876 15 11.6666V10.8333H15.8333C16.0543 10.8333 16.2663 10.7455 16.4226 10.5892C16.5789 10.4329 16.6667 10.2209 16.6667 9.99992V9.16658H10.8333V9.99992C10.8333 10.4419 10.6577 10.8659 10.3452 11.1784C10.0326 11.491 9.60868 11.6666 9.16665 11.6666H7.49998C7.05796 11.6666 6.63403 11.491 6.32147 11.1784C6.00891 10.8659 5.83332 10.4419 5.83332 9.99992V7.49992L4.16665 9.16658Z" fill="#224C75"/>
</svg>
