<svg width="18" height="16" viewBox="0 0 18 16" fill="none" xmlns="http://www.w3.org/2000/svg">
<path d="M9 0.502441C8.67202 0.502441 8.34726 0.567041 8.04425 0.692552C7.74124 0.818063 7.46592 1.00203 7.234 1.23394C7.00209 1.46586 6.81812 1.74118 6.69261 2.04419C6.5671 2.3472 6.5025 2.67196 6.5025 2.99994C6.5025 3.32792 6.5671 3.65268 6.69261 3.95569C6.81812 4.2587 7.00209 4.53403 7.234 4.76594C7.46592 4.99785 7.74124 5.18182 8.04425 5.30733C8.34726 5.43284 8.67202 5.49744 9 5.49744C9.66238 5.49744 10.2976 5.23431 10.766 4.76594C11.2344 4.29757 11.4975 3.66232 11.4975 2.99994C11.4975 2.33756 11.2344 1.70231 10.766 1.23394C10.2976 0.76557 9.66238 0.502441 9 0.502441ZM14.625 1.74994C14.1277 1.74994 13.6508 1.94749 13.2992 2.29912C12.9475 2.65075 12.75 3.12766 12.75 3.62494C12.75 4.12222 12.9475 4.59914 13.2992 4.95077C13.6508 5.3024 14.1277 5.49994 14.625 5.49994C15.1223 5.49994 15.5992 5.3024 15.9508 4.95077C16.3025 4.59914 16.5 4.12222 16.5 3.62494C16.5 3.12766 16.3025 2.65075 15.9508 2.29912C15.5992 1.94749 15.1223 1.74994 14.625 1.74994ZM3.375 1.74994C2.87772 1.74994 2.40081 1.94749 2.04918 2.29912C1.69754 2.65075 1.5 3.12766 1.5 3.62494C1.5 4.12222 1.69754 4.59914 2.04918 4.95077C2.40081 5.3024 2.87772 5.49994 3.375 5.49994C3.87228 5.49994 4.3492 5.3024 4.70083 4.95077C5.05246 4.59914 5.25 4.12222 5.25 3.62494C5.25 3.12766 5.05246 2.65075 4.70083 2.29912C4.3492 1.94749 3.87228 1.74994 3.375 1.74994ZM5.25 7.99119C5.25231 7.66119 5.38503 7.34549 5.6192 7.11296C5.85337 6.88043 6.16999 6.74993 6.5 6.74994H11.5C11.8315 6.74994 12.1495 6.88164 12.3839 7.11606C12.6183 7.35048 12.75 7.66842 12.75 7.99994V11.7499C12.7499 12.1433 12.6883 12.5343 12.5675 12.9087C12.2907 13.7571 11.7206 14.479 10.9594 14.9448C10.1982 15.4106 9.29594 15.5899 8.41454 15.4503C7.53313 15.3107 6.73035 14.8615 6.15035 14.1833C5.57035 13.5051 5.25113 12.6423 5.25 11.7499V7.99119ZM4 7.99994C4 7.54369 4.12125 7.11744 4.335 6.74994H1.5C1.16848 6.74994 0.850537 6.88164 0.616117 7.11606C0.381696 7.35048 0.25 7.66842 0.25 7.99994V11.1249C0.24983 11.6366 0.375283 12.1404 0.615341 12.5922C0.8554 13.0441 1.20272 13.43 1.6268 13.7162C2.05088 14.0025 2.53876 14.1802 3.04757 14.2338C3.55639 14.2874 4.07058 14.2152 4.545 14.0237C4.18522 13.3194 3.9984 12.5395 4 11.7487V7.99994ZM14 7.99994V11.7499C14 12.5687 13.8038 13.3412 13.455 14.0237C13.9294 14.2152 14.4436 14.2874 14.9524 14.2338C15.4612 14.1802 15.9491 14.0025 16.3732 13.7162C16.7973 13.43 17.1446 13.0441 17.3847 12.5922C17.6247 12.1404 17.7502 11.6366 17.75 11.1249V7.99994C17.75 7.66842 17.6183 7.35048 17.3839 7.11606C17.1495 6.88164 16.8315 6.74994 16.5 6.74994H13.665C13.8775 7.11744 14 7.54369 14 7.99994Z" fill="#224C75"/>
</svg>
